<?xml version="1.0" encoding="utf-8" ?>
<svg baseProfile="tiny" height="7016px" version="1.2" width="9933px" xmlns="http://www.w3.org/2000/svg" xmlns:ev="http://www.w3.org/2001/xml-events" xmlns:xlink="http://www.w3.org/1999/xlink"><defs /><g><polyline fill="none" points="4616.48,1363.1086 4344.505,1527.4834 4072.53,1443.2914" stroke="red" /><polyline fill="none" points="8194.725,3289.5017 8031.54,3409.776 7556.175,3331.5977" stroke="red" /><polyline fill="none" points="6250.695,5213.8903 6491.925,5255.9863 6676.395,5015.4377" stroke="red" /><polyline fill="none" points="3670.48,1828.1691 3845.49,1974.5029 3975.565,1846.2103" stroke="red" /><polyline fill="none" points="3639.735,6386.5646 3909.345,6536.9074 4186.05,6446.7017" stroke="red" /><polyline fill="none" points="6279.075,1136.592 6397.325,1200.7383 6515.575,1136.592" stroke="red" /><polyline fill="none" points="4661.415,1768.032 4959.405,1936.416 5169.89,1623.7029" stroke="red" /><polyline fill="none" points="1473.395,2431.5451 3353.57,2469.632 3989.755,2182.9783" stroke="red" /><polyline fill="none" points="4086.72,5171.7943 3810.015,5268.0137 3590.07,5135.712" stroke="red" /><polyline fill="none" points="5751.68,5217.8994 6352.39,5420.3611 7520.7,5592.7543" stroke="red" /><polyline fill="none" points="224.675,2209.0377 305.085,2447.5817 1674.42,2068.7177" stroke="red" /><polyline fill="none" points="6044.94,6753.4011 6797.01,6807.5246 7984.24,6793.4926" stroke="red" /><polyline fill="none" points="6676.395,5015.4377 6882.15,5075.5749 7052.43,4961.3143" stroke="red" /><polyline fill="none" points="3256.605,1930.4023 3516.755,2016.5989 3670.48,1828.1691" stroke="red" /><polyline fill="none" points="7158.855,1619.6937 7042.97,1687.8491 6927.085,1619.6937" stroke="red" /><polyline fill="none" points="685.85,2700.1577 588.885,2964.7611 425.7,2796.3771" stroke="red" /><polyline fill="none" points="1099.725,5901.4583 1253.45,5993.6686 1371.7,5901.4583" stroke="red" /><polyline fill="none" points="5725.665,1046.3863 5628.7,1120.5554 5446.595,1046.3863" stroke="red" /><polyline fill="none" points="2376.825,1455.3189 2632.245,1629.7166 2852.19,1461.3326" stroke="red" /><polyline fill="none" points="5810.805,1571.584 5505.72,2112.8183 5169.89,1623.7029" stroke="red" /><polyline fill="none" points="5910.135,4335.888 5534.1,4420.08 5117.86,4267.7326" stroke="red" /><polyline fill="none" points="2511.63,637.4537 2658.26,709.6183 2748.13,637.4537" stroke="red" /><polyline fill="none" points="5810.805,1571.584 4711.08,2343.344 4469.85,2038.6491" stroke="red" /><polyline fill="none" points="1655.5,244.5577 1849.43,414.9463 2062.28,244.5577" stroke="red" /><polyline fill="none" points="6811.2,2465.6229 7655.505,2724.2126 8043.365,2156.9189" stroke="red" /><polyline fill="none" points="4966.5,4810.9714 4434.375,4907.1909 4079.625,4790.9257" stroke="red" /><polyline fill="none" points="4086.72,5171.7943 4384.71,5454.4389 4618.845,5466.4663" stroke="red" /><polyline fill="none" points="5910.135,4335.888 6378.405,4396.0251 7016.955,4215.6137" stroke="red" /><polyline fill="none" points="4732.365,944.1531 4857.71,1032.3543 5006.705,944.1531" stroke="red" /><polyline fill="none" points="8043.365,2156.9189 8414.67,2567.856 8570.76,2399.472" stroke="red" /><polyline fill="none" points="2121.405,2497.696 2093.025,2760.2949 1759.56,2654.0526" stroke="red" /><polyline fill="none" points="6676.395,5015.4377 6279.075,4979.3554 5966.895,4841.04" stroke="red" /><polyline fill="none" points="2197.085,3596.2011 3079.23,3812.6949 3344.11,3714.4709" stroke="red" /><polyline fill="none" points="2312.97,3975.0651 2603.865,4371.9703 2745.765,4299.8057" stroke="red" /><polyline fill="none" points="5846.28,6043.7829 6293.265,6133.9886 6503.75,6073.8514" stroke="red" /><polyline fill="none" points="2204.18,5588.7451 2419.395,5664.9189 2573.12,5588.7451" stroke="red" /><polyline fill="none" points="9202.215,2868.5417 9301.545,3030.912 9415.065,2910.6377" stroke="red" /><polyline fill="none" points="3951.915,871.9886 2277.495,2237.1017 1825.78,2347.3531" stroke="red" /><polyline fill="none" points="8237.295,2730.2263 8109.585,2820.432 7953.495,2796.3771" stroke="red" /><polyline fill="none" points="8357.91,252.576 8476.16,316.7223 8594.41,252.576" stroke="red" /><polyline fill="none" points="1873.08,5376.2606 1646.04,5424.3703 1298.385,5418.3566" stroke="red" /><polyline fill="none" points="5229.015,2982.8023 5690.19,3079.0217 5988.18,2904.624" stroke="red" /><polyline fill="none" points="4909.74,6320.4137 4682.7,6332.4411 4405.995,6242.2354" stroke="red" /><polyline fill="none" points="6768.63,4462.176 7698.075,4510.2857 7832.88,4390.0114" stroke="red" /><polyline fill="none" points="2618.055,5382.2743 2958.615,5466.4663 3320.46,5454.4389" stroke="red" /><polyline fill="none" points="787.545,1443.2914 901.065,1557.552 1142.295,1431.264" stroke="red" /><polyline fill="none" points="5491.53,6484.7886 5614.51,6570.9851 5742.22,6484.7886" stroke="red" /><polyline fill="none" points="3299.175,6404.6057 2937.33,6428.6606 2504.535,6332.4411" stroke="red" /><polyline fill="none" points="7527.795,2381.4309 7385.895,2561.8423 7095.0,2423.5269" stroke="red" /><polyline fill="none" points="5959.8,3788.64 6307.455,3836.7497 6598.35,3680.3931" stroke="red" /><polyline fill="none" points="3060.31,2922.6651 2859.285,3313.5566 2672.45,2956.7429" stroke="red" /><polyline fill="none" points="7362.245,6434.6743 7532.525,6532.8983 7634.22,6434.6743" stroke="red" /><polyline fill="none" points="307.45,1517.4606 423.335,1579.6023 551.045,1517.4606" stroke="red" /><polyline fill="none" points="957.825,2784.3497 766.26,3271.4606 588.885,3042.9394" stroke="red" /><polyline fill="none" points="6208.125,5911.4811 6534.495,5899.4537 7021.685,5831.2983" stroke="red" /><polyline fill="none" points="8012.62,1268.8937 7918.02,1373.1314 7797.405,1268.8937" stroke="red" /><polyline fill="none" points="6733.155,6326.4274 7078.445,6396.5874 7196.695,6326.4274" stroke="red" /><polyline fill="none" points="2291.685,703.6046 2312.97,956.1806 2093.025,811.8514" stroke="red" /><polyline fill="none" points="7818.69,5809.248 7563.27,5899.4537 7215.615,5827.2891" stroke="red" /><polyline fill="none" points="172.645,4061.2617 581.79,4071.2846 1085.535,3914.928" stroke="red" /><polyline fill="none" points="5846.28,4582.4503 6406.785,4756.848 6768.63,4462.176" stroke="red" /><polyline fill="none" points="8641.71,5255.9863 8556.57,5436.3977 8294.055,5322.1371" stroke="red" /><polyline fill="none" points="8840.37,6127.9749 8450.145,6386.5646 7776.12,6218.1806" stroke="red" /><polyline fill="none" points="1473.395,2431.5451 1274.735,2525.76 1158.85,2321.2937" stroke="red" /><polyline fill="none" points="7407.18,1082.4686 7525.43,1146.6149 7643.68,1082.4686" stroke="red" /><polyline fill="none" points="3060.31,2922.6651 3263.7,3349.6389 3663.385,3111.0949" stroke="red" /><polyline fill="none" points="6811.2,2465.6229 6534.495,2513.7326 6300.36,2459.6091" stroke="red" /><polyline fill="none" points="7130.475,896.0434 7248.725,960.1897 7366.975,896.0434" stroke="red" /><polyline fill="none" points="484.825,4506.2766 536.855,4610.5143 662.2,4506.2766" stroke="red" /><polyline fill="none" points="3951.915,871.9886 4070.165,936.1349 4188.415,871.9886" stroke="red" /><polyline fill="none" points="1825.78,2347.3531 1404.81,2760.2949 957.825,2784.3497" stroke="red" /><polyline fill="none" points="1553.805,4143.4491 1686.245,4299.8057 1870.715,4203.5863" stroke="red" /><polyline fill="none" points="7095.0,2838.4731 7279.47,2922.6651 7407.18,2814.4183" stroke="red" /><polyline fill="none" points="752.07,1778.0549 1094.995,2100.7909 1518.33,1804.1143" stroke="red" /><polyline fill="none" points="553.41,5304.096 886.875,5568.6994 1298.385,5418.3566" stroke="red" /><polyline fill="none" points="7946.4,5678.9509 8111.95,5785.1931 8251.485,5678.9509" stroke="red" /><polyline fill="none" points="5136.78,3698.4343 5087.115,4011.1474 4668.51,3680.3931" stroke="red" /><polyline fill="none" points="8102.49,4494.2491 8230.2,4762.8617 8379.195,4566.4137" stroke="red" /><polyline fill="none" points="5725.665,1046.3863 5269.22,2640.0206 5096.575,2519.7463" stroke="red" /><polyline fill="none" points="3114.705,5743.0971 3232.955,5807.2434 3351.205,5743.0971" stroke="red" /><polyline fill="none" points="7780.85,6633.1269 8272.77,6717.3189 8627.52,6645.1543" stroke="red" /><polyline fill="none" points="7407.18,2814.4183 7286.565,3463.8994 6818.295,3121.1177" stroke="red" /><polyline fill="none" points="4086.72,2754.2811 4434.375,2934.6926 4533.705,2838.4731" stroke="red" /><polyline fill="none" points="9457.635,1924.3886 9308.64,1984.5257 9131.265,1936.416" stroke="red" /><polyline fill="none" points="4966.5,4810.9714 5463.15,5105.6434 5966.895,4841.04" stroke="red" /><polyline fill="none" points="3086.325,5087.6023 3448.17,5195.8491 3590.07,5135.712" stroke="red" /><polyline fill="none" points="6281.44,1972.4983 6099.335,2092.7726 5900.675,1982.5211" stroke="red" /><polyline fill="none" points="3256.605,1930.4023 3315.73,2253.1383 2930.235,2008.5806" stroke="red" /></g><g><polyline fill="none" points="3079.23,3812.6949 3705.955,4317.8469" stroke="green" /><polyline fill="none" points="2859.285,3313.5566 6250.695,5213.8903" stroke="green" /><polyline fill="none" points="886.875,5568.6994 2504.535,6332.4411" stroke="green" /><polyline fill="none" points="4959.405,1936.416 2672.45,2956.7429" stroke="green" /><polyline fill="none" points="2312.97,956.1806 2376.825,1455.3189" stroke="green" /><polyline fill="none" points="8230.2,4762.8617 6503.75,6073.8514" stroke="green" /><polyline fill="none" points="7286.565,3463.8994 6768.63,4462.176" stroke="green" /><polyline fill="none" points="6293.265,6133.9886 6108.795,6452.7154" stroke="green" /><polyline fill="none" points="6307.455,3836.7497 6676.395,5015.4377" stroke="green" /><polyline fill="none" points="9308.64,1984.5257 9415.065,2910.6377" stroke="green" /><polyline fill="none" points="1274.735,2525.76 4079.625,4790.9257" stroke="green" /><polyline fill="none" points="3263.7,3349.6389 7052.43,4961.3143" stroke="green" /><polyline fill="none" points="6491.925,5255.9863 6797.01,5340.1783" stroke="green" /><polyline fill="none" points="5614.51,6570.9851 5186.445,6729.3463" stroke="green" /><polyline fill="none" points="8476.16,316.7223 9202.215,2868.5417" stroke="green" /><polyline fill="none" points="2658.26,709.6183 3975.565,1846.2103" stroke="green" /><polyline fill="none" points="7698.075,4510.2857 7520.7,5592.7543" stroke="green" /><polyline fill="none" points="6378.405,4396.0251 5846.28,6043.7829" stroke="green" /><polyline fill="none" points="3263.7,3349.6389 3086.325,5087.6023" stroke="green" /><polyline fill="none" points="766.26,3271.4606 5966.895,4841.04" stroke="green" /><polyline fill="none" points="4434.375,2934.6926 3590.07,5135.712" stroke="green" /><polyline fill="none" points="2632.245,1629.7166 1870.715,4203.5863" stroke="green" /><polyline fill="none" points="7078.445,6396.5874 6562.875,6639.1406" stroke="green" /><polyline fill="none" points="8111.95,5785.1931 8173.44,6548.9349" stroke="green" /><polyline fill="none" points="8556.57,5436.3977 8428.86,5682.96" stroke="green" /><polyline fill="none" points="2658.26,709.6183 4469.85,2038.6491" stroke="green" /><polyline fill="none" points="2277.495,2237.1017 5959.8,3788.64" stroke="green" /><polyline fill="none" points="2603.865,4371.9703 1873.08,5376.2606" stroke="green" /><polyline fill="none" points="6352.39,5420.3611 3299.175,6404.6057" stroke="green" /><polyline fill="none" points="5690.19,3079.0217 5751.68,5217.8994" stroke="green" /><polyline fill="none" points="7279.47,2922.6651 1085.535,3914.928" stroke="green" /><polyline fill="none" points="5534.1,4420.08 4994.88,5502.5486" stroke="green" /><polyline fill="none" points="8476.16,316.7223 8012.62,1268.8937" stroke="green" /><polyline fill="none" points="1253.45,5993.6686 1511.235,6176.0846" stroke="green" /><polyline fill="none" points="901.065,1557.552 957.825,2784.3497" stroke="green" /><polyline fill="none" points="2277.495,2237.1017 3060.31,2922.6651" stroke="green" /><polyline fill="none" points="6882.15,5075.5749 7158.855,5177.808" stroke="green" /><polyline fill="none" points="6293.265,6133.9886 5962.165,6334.4457" stroke="green" /><polyline fill="none" points="5269.22,2640.0206 4533.705,2838.4731" stroke="green" /><polyline fill="none" points="7532.525,6532.8983 7780.85,6633.1269" stroke="green" /><polyline fill="none" points="536.855,4610.5143 1191.96,4726.7794" stroke="green" /><polyline fill="none" points="2419.395,5664.9189 2249.115,6061.824" stroke="green" /><polyline fill="none" points="1849.43,414.9463 2121.405,2497.696" stroke="green" /><polyline fill="none" points="4070.165,936.1349 4072.53,1443.2914" stroke="green" /><polyline fill="none" points="4959.405,1936.416 4966.5,4810.9714" stroke="green" /><polyline fill="none" points="2093.025,2760.2949 2197.085,3596.2011" stroke="green" /><polyline fill="none" points="4857.71,1032.3543 4661.415,1768.032" stroke="green" /><polyline fill="none" points="3353.57,2469.632 4668.51,3680.3931" stroke="green" /><polyline fill="none" points="6378.405,4396.0251 5633.43,6055.8103" stroke="green" /><polyline fill="none" points="581.79,4071.2846 1298.385,5418.3566" stroke="green" /><polyline fill="none" points="5463.15,5105.6434 6208.125,5911.4811" stroke="green" /><polyline fill="none" points="4434.375,4907.1909 4405.995,5141.7257" stroke="green" /><polyline fill="none" points="2632.245,1629.7166 2312.97,3975.0651" stroke="green" /><polyline fill="none" points="8031.54,3409.776 7016.955,4215.6137" stroke="green" /><polyline fill="none" points="7532.525,6532.8983 7203.79,6671.2137" stroke="green" /><polyline fill="none" points="5463.15,5105.6434 3320.46,5454.4389" stroke="green" /><polyline fill="none" points="2312.97,956.1806 7556.175,3331.5977" stroke="green" /><polyline fill="none" points="5614.51,6570.9851 6044.94,6753.4011" stroke="green" /><polyline fill="none" points="6534.495,2513.7326 6598.35,3680.3931" stroke="green" /><polyline fill="none" points="5690.19,3079.0217 7832.88,4390.0114" stroke="green" /><polyline fill="none" points="4711.08,2343.344 5229.015,2982.8023" stroke="green" /><polyline fill="none" points="8111.95,5785.1931 7984.24,6793.4926" stroke="green" /><polyline fill="none" points="901.065,1557.552 1473.395,2431.5451" stroke="green" /><polyline fill="none" points="8450.145,6386.5646 8627.52,6645.1543" stroke="green" /><polyline fill="none" points="581.79,4071.2846 2618.055,5382.2743" stroke="green" /><polyline fill="none" points="6307.455,3836.7497 2724.48,4871.1086" stroke="green" /><polyline fill="none" points="1646.04,5424.3703 1894.365,5694.9874" stroke="green" /><polyline fill="none" points="8556.57,5436.3977 8670.09,5701.0011" stroke="green" /><polyline fill="none" points="6397.325,1200.7383 5810.805,1571.584" stroke="green" /><polyline fill="none" points="4384.71,5454.4389 4186.05,5652.8914" stroke="green" /><polyline fill="none" points="6378.405,4396.0251 8294.055,5322.1371" stroke="green" /><polyline fill="none" points="8111.95,5785.1931 8405.21,6514.8571" stroke="green" /><polyline fill="none" points="7385.895,2561.8423 3663.385,3111.0949" stroke="green" /><polyline fill="none" points="7385.895,2561.8423 7407.18,2814.4183" stroke="green" /><polyline fill="none" points="1253.45,5993.6686 1106.82,6158.0434" stroke="green" /><polyline fill="none" points="4384.71,5454.4389 4417.82,5624.8274" stroke="green" /><polyline fill="none" points="4344.505,1527.4834 3989.755,2182.9783" stroke="green" /><polyline fill="none" points="305.085,2447.5817 1759.56,2654.0526" stroke="green" /><polyline fill="none" points="7698.075,4510.2857 7818.69,5809.248" stroke="green" /><polyline fill="none" points="8109.585,2820.432 8194.725,3289.5017" stroke="green" /><polyline fill="none" points="5534.1,4420.08 4618.845,5466.4663" stroke="green" /><polyline fill="none" points="7286.565,3463.8994 2745.765,4299.8057" stroke="green" /><polyline fill="none" points="4070.165,936.1349 3670.48,1828.1691" stroke="green" /><polyline fill="none" points="6307.455,3836.7497 6456.45,4059.2571" stroke="green" /><polyline fill="none" points="5505.72,2112.8183 6818.295,3121.1177" stroke="green" /><polyline fill="none" points="6397.325,1200.7383 7095.0,2423.5269" stroke="green" /><polyline fill="none" points="1849.43,414.9463 2511.63,637.4537" stroke="green" /><polyline fill="none" points="7655.505,2724.2126 7676.79,2934.6926" stroke="green" /><polyline fill="none" points="6352.39,5420.3611 6253.06,5598.768" stroke="green" /><polyline fill="none" points="536.855,4610.5143 205.755,4732.7931" stroke="green" /><polyline fill="none" points="6099.335,2092.7726 5988.18,2904.624" stroke="green" /><polyline fill="none" points="3448.17,5195.8491 3639.735,6386.5646" stroke="green" /><polyline fill="none" points="423.335,1579.6023 3256.605,1930.4023" stroke="green" /><polyline fill="none" points="2603.865,4371.9703 7776.12,6218.1806" stroke="green" /><polyline fill="none" points="7532.525,6532.8983 7518.335,6665.2" stroke="green" /><polyline fill="none" points="7918.02,1373.1314 1825.78,2347.3531" stroke="green" /><polyline fill="none" points="6352.39,5420.3611 6763.9,5725.056" stroke="green" /><polyline fill="none" points="8230.2,4762.8617 8641.71,5255.9863" stroke="green" /><polyline fill="none" points="305.085,2447.5817 172.645,4061.2617" stroke="green" /><polyline fill="none" points="4857.71,1032.3543 1142.295,1431.264" stroke="green" /><polyline fill="none" points="8476.16,316.7223 5725.665,1046.3863" stroke="green" /><polyline fill="none" points="7042.97,1687.8491 6281.44,1972.4983" stroke="green" /><polyline fill="none" points="5628.7,1120.5554 2852.19,1461.3326" stroke="green" /><polyline fill="none" points="6397.325,1200.7383 1674.42,2068.7177" stroke="green" /><polyline fill="none" points="6293.265,6133.9886 4909.74,6320.4137" stroke="green" /><polyline fill="none" points="7698.075,4510.2857 7021.685,5831.2983" stroke="green" /><polyline fill="none" points="3909.345,6536.9074 3866.775,6735.36" stroke="green" /><polyline fill="none" points="2658.26,709.6183 6811.2,2465.6229" stroke="green" /><polyline fill="none" points="3315.73,2253.1383 5096.575,2519.7463" stroke="green" /><polyline fill="none" points="3079.23,3812.6949 5846.28,4582.4503" stroke="green" /><polyline fill="none" points="6882.15,5075.5749 7066.62,5352.2057" stroke="green" /><polyline fill="none" points="7525.43,1146.6149 7527.795,2381.4309" stroke="green" /><polyline fill="none" points="9301.545,3030.912 3344.11,3714.4709" stroke="green" /><polyline fill="none" points="7248.725,960.1897 7158.855,1619.6937" stroke="green" /><polyline fill="none" points="5690.19,3079.0217 5910.135,4335.888" stroke="green" /><polyline fill="none" points="3079.23,3812.6949 553.41,5304.096" stroke="green" /><polyline fill="none" points="423.335,1579.6023 567.6,1942.4297" stroke="green" /><polyline fill="none" points="5087.115,4011.1474 5117.86,4267.7326" stroke="green" /><polyline fill="none" points="6307.455,3836.7497 4086.72,5171.7943" stroke="green" /><polyline fill="none" points="4711.08,2343.344 5136.78,3698.4343" stroke="green" /><polyline fill="none" points="9301.545,3030.912 8840.37,6127.9749" stroke="green" /><polyline fill="none" points="3232.955,5807.2434 3412.695,6146.016" stroke="green" /><polyline fill="none" points="886.875,5568.6994 539.22,5743.0971" stroke="green" /><polyline fill="none" points="6293.265,6133.9886 6328.74,6458.7291" stroke="green" /><polyline fill="none" points="6307.455,3836.7497 6662.205,3951.0103" stroke="green" /><polyline fill="none" points="3448.17,5195.8491 2781.24,5713.0286" stroke="green" /><polyline fill="none" points="423.335,1579.6023 224.675,2209.0377" stroke="green" /><polyline fill="none" points="6534.495,2513.7326 7095.0,2838.4731" stroke="green" /><polyline fill="none" points="3516.755,2016.5989 4086.72,2754.2811" stroke="green" /><polyline fill="none" points="1274.735,2525.76 1553.805,4143.4491" stroke="green" /><polyline fill="none" points="8031.54,3409.776 8379.195,4566.4137" stroke="green" /><polyline fill="none" points="7078.445,6396.5874 6917.625,6645.1543" stroke="green" /><polyline fill="none" points="3232.955,5807.2434 3150.18,6224.1943" stroke="green" /><polyline fill="none" points="1849.43,414.9463 2291.685,703.6046" stroke="green" /><polyline fill="none" points="3448.17,5195.8491 3788.73,5664.9189" stroke="green" /><polyline fill="none" points="588.885,2964.7611 588.885,3042.9394" stroke="green" /><polyline fill="none" points="3810.015,5268.0137 4405.995,6242.2354" stroke="green" /><polyline fill="none" points="8476.16,316.7223 8043.365,2156.9189" stroke="green" /><polyline fill="none" points="1094.995,2100.7909 1158.85,2321.2937" stroke="green" /><polyline fill="none" points="2419.395,5664.9189 2540.01,6152.0297" stroke="green" /></g><g><polyline fill="none" points="5633.43,6055.8103 5186.445,6729.3463" stroke="blue" /><polyline fill="none" points="2859.285,3313.5566 5966.895,4841.04" stroke="blue" /><polyline fill="none" points="3079.23,3812.6949 1870.715,4203.5863" stroke="blue" /><polyline fill="none" points="7818.69,5809.248 6562.875,6639.1406" stroke="blue" /><polyline fill="none" points="6763.9,5725.056 6562.875,6639.1406" stroke="blue" /><polyline fill="none" points="7776.12,6218.1806 8173.44,6548.9349" stroke="blue" /><polyline fill="none" points="957.825,2784.3497 5959.8,3788.64" stroke="blue" /><polyline fill="none" points="6352.39,5420.3611 7215.615,5827.2891" stroke="blue" /><polyline fill="none" points="957.825,2784.3497 3060.31,2922.6651" stroke="blue" /><polyline fill="none" points="6503.75,6073.8514 6974.385,6232.2126" stroke="blue" /><polyline fill="none" points="1759.56,2654.0526 1191.96,4726.7794" stroke="blue" /><polyline fill="none" points="172.645,4061.2617 1191.96,4726.7794" stroke="blue" /><polyline fill="none" points="2781.24,5713.0286 2249.115,6061.824" stroke="blue" /><polyline fill="none" points="8840.37,6127.9749 8968.08,6603.0583" stroke="blue" /><polyline fill="none" points="4618.845,5466.4663 4186.05,6446.7017" stroke="blue" /><polyline fill="none" points="6676.395,5015.4377 6208.125,5911.4811" stroke="blue" /><polyline fill="none" points="3079.23,3812.6949 2312.97,3975.0651" stroke="blue" /><polyline fill="none" points="6676.395,5015.4377 3320.46,5454.4389" stroke="blue" /><polyline fill="none" points="5633.43,6055.8103 6044.94,6753.4011" stroke="blue" /><polyline fill="none" points="2724.48,4871.1086 2518.725,5123.6846" stroke="blue" /><polyline fill="none" points="7776.12,6218.1806 7984.24,6793.4926" stroke="blue" /><polyline fill="none" points="3079.23,3812.6949 2724.48,4871.1086" stroke="blue" /><polyline fill="none" points="4994.88,5502.5486 5527.005,5887.4263" stroke="blue" /><polyline fill="none" points="7776.12,6218.1806 8405.21,6514.8571" stroke="blue" /><polyline fill="none" points="4469.85,2038.6491 6818.295,3121.1177" stroke="blue" /><polyline fill="none" points="1759.56,2654.0526 205.755,4732.7931" stroke="blue" /><polyline fill="none" points="172.645,4061.2617 205.755,4732.7931" stroke="blue" /><polyline fill="none" points="8043.365,2156.9189 1825.78,2347.3531" stroke="blue" /><polyline fill="none" points="7676.79,2934.6926 8102.49,4494.2491" stroke="blue" /><polyline fill="none" points="2781.24,5713.0286 3412.695,6146.016" stroke="blue" /><polyline fill="none" points="7818.69,5809.248 6917.625,6645.1543" stroke="blue" /><polyline fill="none" points="6763.9,5725.056 6917.625,6645.1543" stroke="blue" /><polyline fill="none" points="2781.24,5713.0286 3150.18,6224.1943" stroke="blue" /><polyline fill="none" points="6044.94,6753.4011 5605.05,6867.6617" stroke="blue" /><polyline fill="none" points="5186.445,6729.3463 5605.05,6867.6617" stroke="blue" /><polyline fill="none" points="2781.24,5713.0286 2540.01,6152.0297" stroke="blue" /></g><g><text fill="black" text-anchor="middle" x="3705.955" y="4317.84685714">Наама (Ур)</text><text fill="black" text-anchor="middle" x="2748.13" y="637.453714286">?</text><text fill="black" text-anchor="middle" x="7643.68" y="1082.46857143">?</text><text fill="black" text-anchor="middle" x="1901.46" y="6356.496">Исаак (Орлик)</text><text fill="black" text-anchor="middle" x="6250.695" y="5213.89028571">Далила (Морлинкс)</text><text fill="black" text-anchor="middle" x="2504.535" y="6332.44114286">Елиазар (Воробейка)</text><text fill="black" text-anchor="middle" x="2672.45" y="2956.74285714">Мириам (Атаня)</text><text fill="black" text-anchor="middle" x="2376.825" y="1455.31885714">Гирсам (Вася Шатров)</text><text fill="black" text-anchor="middle" x="6503.75" y="6073.85142857">Сара (Ри)</text><text fill="black" text-anchor="middle" x="6768.63" y="4462.176">Иисус (Банцес)</text><text fill="black" text-anchor="middle" x="6108.795" y="6452.71542857">Руфь (Верит)</text><text fill="black" text-anchor="middle" x="6676.395" y="5015.43771429">Елисей (Рингл)</text><text fill="black" text-anchor="middle" x="9415.065" y="2910.63771429">Фарра (Фидель)</text><text fill="black" text-anchor="middle" x="2093.025" y="811.851428571">Сепфора (Вар)</text><text fill="black" text-anchor="middle" x="4079.625" y="4790.92571429">Мириам (Анчоус)</text><text fill="black" text-anchor="middle" x="662.2" y="4506.27657143">?</text><text fill="black" text-anchor="middle" x="7052.43" y="4961.31428571">Габриэлла (Сцила)</text><text fill="black" text-anchor="middle" x="6797.01" y="5340.17828571">Лия (Вар)</text><text fill="black" text-anchor="middle" x="5186.445" y="6729.34628571">Елисей (Эйлин)</text><text fill="black" text-anchor="middle" x="9202.215" y="2868.54171429">Дина (Хелькэ)</text><text fill="black" text-anchor="middle" x="3975.565" y="1846.21028571">Ривка (Фалька)</text><text fill="black" text-anchor="middle" x="1655.5" y="244.557714286">Иохаведа</text><text fill="black" text-anchor="middle" x="7520.7" y="5592.75428571">Юдифь (Ранвен)</text><text fill="black" text-anchor="middle" x="5846.28" y="6043.78285714">Иуда (Ксю)</text><text fill="black" text-anchor="middle" x="425.7" y="2796.37714286">Самсон</text><text fill="black" text-anchor="middle" x="3086.325" y="5087.60228571">Эсфирь (Злата)</text><text fill="black" text-anchor="middle" x="5966.895" y="4841.04">Мария (Тинде)</text><text fill="black" text-anchor="middle" x="3590.07" y="5135.712">Микаэль (Вася Шатров)</text><text fill="black" text-anchor="middle" x="1870.715" y="4203.58628571">Мелхола (Элли)</text><text fill="black" text-anchor="middle" x="8237.295" y="2730.22628571">Иозиил</text><text fill="black" text-anchor="middle" x="6562.875" y="6639.14057143">Ада (Нэсса)</text><text fill="black" text-anchor="middle" x="6279.075" y="1136.592">Йоэль (Сеата)</text><text fill="black" text-anchor="middle" x="5446.595" y="1046.38628571">?</text><text fill="black" text-anchor="middle" x="8173.44" y="6548.93485714">Симеон (Камилл)</text><text fill="black" text-anchor="middle" x="8428.86" y="5682.96">Елишева (Лильсла)</text><text fill="black" text-anchor="middle" x="4469.85" y="2038.64914286">Ноеминь (Тинде)</text><text fill="black" text-anchor="middle" x="752.07" y="1778.05485714">Агарь (Элли)</text><text fill="black" text-anchor="middle" x="5959.8" y="3788.64">Лия (Хейтэлл)</text><text fill="black" text-anchor="middle" x="4616.48" y="1363.10857143">Исайя (Декарт)</text><text fill="black" text-anchor="middle" x="2204.18" y="5588.74514286">?</text><text fill="black" text-anchor="middle" x="7362.245" y="6434.67428571">?</text><text fill="black" text-anchor="middle" x="7953.495" y="2796.37714286">Ноадия</text><text fill="black" text-anchor="middle" x="7946.4" y="5678.95085714">?</text><text fill="black" text-anchor="middle" x="3114.705" y="5743.09714286">?</text><text fill="black" text-anchor="middle" x="6733.155" y="6326.42742857">?</text><text fill="black" text-anchor="middle" x="484.825" y="4506.27657143">?</text><text fill="black" text-anchor="middle" x="8357.91" y="252.576">?</text><text fill="black" text-anchor="middle" x="1873.08" y="5376.26057143">Анна (Анчоус)</text><text fill="black" text-anchor="middle" x="5491.53" y="6484.78857143">?</text><text fill="black" text-anchor="middle" x="7215.615" y="5827.28914286">Саул (Авелио)</text><text fill="black" text-anchor="middle" x="3299.175" y="6404.60571429">Далила (Хейтэлл)</text><text fill="black" text-anchor="middle" x="5751.68" y="5217.89942857">Иосиф (Фидель)</text><text fill="black" text-anchor="middle" x="1085.535" y="3914.928">Дина (Лильсла)</text><text fill="black" text-anchor="middle" x="4994.88" y="5502.54857143">Иосиф (Кролль)</text><text fill="black" text-anchor="middle" x="8012.62" y="1268.89371429">Вениамин</text><text fill="black" text-anchor="middle" x="1511.235" y="6176.08457143">Эсфер (Товер)</text><text fill="black" text-anchor="middle" x="957.825" y="2784.34971429">Хирам (Вердалин)</text><text fill="black" text-anchor="middle" x="3060.31" y="2922.66514286">Илия (Кролль)</text><text fill="black" text-anchor="middle" x="7158.855" y="5177.808">Каин (Артем Грачев)</text><text fill="black" text-anchor="middle" x="7634.22" y="6434.67428571">?</text><text fill="black" text-anchor="middle" x="5962.165" y="6334.44571429">Ева (Тайлами)</text><text fill="black" text-anchor="middle" x="551.045" y="1517.46057143">?</text><text fill="black" text-anchor="middle" x="4533.705" y="2838.47314286">Сарра (Ранвен)</text><text fill="black" text-anchor="middle" x="7780.85" y="6633.12685714">Самсон (203)</text><text fill="black" text-anchor="middle" x="6974.385" y="6232.21257143">Сарра (Морлинкс)</text><text fill="black" text-anchor="middle" x="1099.725" y="5901.45828571">?</text><text fill="black" text-anchor="middle" x="4732.365" y="944.153142857">Зива (Ёвин)</text><text fill="black" text-anchor="middle" x="2062.28" y="244.557714286">?</text><text fill="black" text-anchor="middle" x="1191.96" y="4726.77942857">Эсфирь (Вар)</text><text fill="black" text-anchor="middle" x="685.85" y="2700.15771429">Наара (Анчоус)</text><text fill="black" text-anchor="middle" x="6927.085" y="1619.69371429">?</text><text fill="black" text-anchor="middle" x="2249.115" y="6061.824">Сусанна (Маргарита)</text><text fill="black" text-anchor="middle" x="1371.7" y="5901.45828571">?</text><text fill="black" text-anchor="middle" x="2121.405" y="2497.696">Аарон (Сергей Шульгин)</text><text fill="black" text-anchor="middle" x="4072.53" y="1443.29142857">Руфь (Ранвен)</text><text fill="black" text-anchor="middle" x="8968.08" y="6603.05828571">Фарра (203)</text><text fill="black" text-anchor="middle" x="5900.675" y="1982.52114286">Тартан (Тим)</text><text fill="black" text-anchor="middle" x="4966.5" y="4810.97142857">Барух (Авелио)</text><text fill="black" text-anchor="middle" x="6515.575" y="1136.592">?</text><text fill="black" text-anchor="middle" x="7797.405" y="1268.89371429">?</text><text fill="black" text-anchor="middle" x="2197.085" y="3596.20114286">Арамей (203)</text><text fill="black" text-anchor="middle" x="4661.415" y="1768.032">Барух (Артем Грачев)</text><text fill="black" text-anchor="middle" x="4668.51" y="3680.39314286">Ревекка (Селена)</text><text fill="black" text-anchor="middle" x="5006.705" y="944.153142857">?</text><text fill="black" text-anchor="middle" x="7407.18" y="1082.46857143">Сира (Атаня)</text><text fill="black" text-anchor="middle" x="4186.05" y="6446.70171429">Фарра (Элли)</text><text fill="black" text-anchor="middle" x="7366.975" y="896.043428571">?</text><text fill="black" text-anchor="middle" x="9457.635" y="1924.38857143">Езекия</text><text fill="black" text-anchor="middle" x="5633.43" y="6055.81028571">Сара (Кирка)</text><text fill="black" text-anchor="middle" x="1298.385" y="5418.35657143">Лазарь (Фоссовей)</text><text fill="black" text-anchor="middle" x="6208.125" y="5911.48114286">Илия (Камилл)</text><text fill="black" text-anchor="middle" x="4405.995" y="5141.72571429">Зива (Настя Никульшина)</text><text fill="black" text-anchor="middle" x="2312.97" y="3975.06514286">Авессалом (Лу)</text><text fill="black" text-anchor="middle" x="7016.955" y="4215.61371429">Сепфора (Фалька)</text><text fill="black" text-anchor="middle" x="7203.79" y="6671.21371429">Сим (Рингл)</text><text fill="black" text-anchor="middle" x="3320.46" y="5454.43885714">Микаэл (Хейтэлл)</text><text fill="black" text-anchor="middle" x="5169.89" y="1623.70285714">Ноа (Сцила)</text><text fill="black" text-anchor="middle" x="7556.175" y="3331.59771429">Мириам (Саша Даниленко)</text><text fill="black" text-anchor="middle" x="1518.33" y="1804.11428571">Саул</text><text fill="black" text-anchor="middle" x="6044.94" y="6753.40114286">Иудея (Селена)</text><text fill="black" text-anchor="middle" x="2518.725" y="5123.68457143">Аарон (Авелио)</text><text fill="black" text-anchor="middle" x="6598.35" y="3680.39314286">Ошер (Камилл)</text><text fill="black" text-anchor="middle" x="7832.88" y="4390.01142857">Яффа (Тайлами)</text><text fill="black" text-anchor="middle" x="5229.015" y="2982.80228571">Яффа (Эфи)</text><text fill="black" text-anchor="middle" x="7984.24" y="6793.49257143">Вениамин (Лу)</text><text fill="black" text-anchor="middle" x="1473.395" y="2431.54514286">Амария (Товер)</text><text fill="black" text-anchor="middle" x="8627.52" y="6645.15428571">Сира (Санька)</text><text fill="black" text-anchor="middle" x="2618.055" y="5382.27428571">Дебора (Санька)</text><text fill="black" text-anchor="middle" x="2724.48" y="4871.10857143">Ефрем (Товер)</text><text fill="black" text-anchor="middle" x="1894.365" y="5694.98742857">Азраил (Арадурсул)</text><text fill="black" text-anchor="middle" x="5742.22" y="6484.78857143">?</text><text fill="black" text-anchor="middle" x="8670.09" y="5701.00114286">Исаак (Лу)</text><text fill="black" text-anchor="middle" x="5527.005" y="5887.42628571">Иов (Марья)</text><text fill="black" text-anchor="middle" x="5810.805" y="1571.584">Илия (Рингл)</text><text fill="black" text-anchor="middle" x="4186.05" y="5652.89142857">Авраам (Вася Шатров)</text><text fill="black" text-anchor="middle" x="8294.055" y="5322.13714286">Яффа-Мириам (Маргарита)</text><text fill="black" text-anchor="middle" x="8405.21" y="6514.85714286">Берия (Орлик)</text><text fill="black" text-anchor="middle" x="3663.385" y="3111.09485714">Юдифь (Ёвин)</text><text fill="black" text-anchor="middle" x="7407.18" y="2814.41828571">Моисей (Фоссовей)</text><text fill="black" text-anchor="middle" x="307.45" y="1517.46057143">Авива (Хейтэлл)</text><text fill="black" text-anchor="middle" x="1106.82" y="6158.04342857">Руфь (Ёвин)</text><text fill="black" text-anchor="middle" x="2573.12" y="5588.74514286">?</text><text fill="black" text-anchor="middle" x="4417.82" y="5624.82742857">Руфь (Злата)</text><text fill="black" text-anchor="middle" x="3989.755" y="2182.97828571">Ева (Ри)</text><text fill="black" text-anchor="middle" x="1759.56" y="2654.05257143">Рахиль (Морлинкс)</text><text fill="black" text-anchor="middle" x="7818.69" y="5809.248">Анна (Хэлка)</text><text fill="black" text-anchor="middle" x="2930.235" y="2008.58057143">Зеэв</text><text fill="black" text-anchor="middle" x="8194.725" y="3289.50171429">Иоканаан (Грэй)</text><text fill="black" text-anchor="middle" x="4618.845" y="5466.46628571">Вениамин (Декарт)</text><text fill="black" text-anchor="middle" x="2745.765" y="4299.80571429">Лия (Эйлин)</text><text fill="black" text-anchor="middle" x="3670.48" y="1828.16914286">Иаков (Лу)</text><text fill="black" text-anchor="middle" x="6456.45" y="4059.25714286">Емима (Саша Даниленко)</text><text fill="black" text-anchor="middle" x="6818.295" y="3121.11771429">Нава (Кирка)</text><text fill="black" text-anchor="middle" x="7095.0" y="2423.52685714">Зелфа (Тайлами)</text><text fill="black" text-anchor="middle" x="2511.63" y="637.453714286">Мириам (Хэлка)</text><text fill="black" text-anchor="middle" x="8251.485" y="5678.95085714">?</text><text fill="black" text-anchor="middle" x="7676.79" y="2934.69257143">Иисус (Артем Грачев)</text><text fill="black" text-anchor="middle" x="6253.06" y="5598.768">Яффа (Ёвин)</text><text fill="black" text-anchor="middle" x="8594.41" y="252.576">?</text><text fill="black" text-anchor="middle" x="205.755" y="4732.79314286">Ельезар (Тео)</text><text fill="black" text-anchor="middle" x="5988.18" y="2904.624">Симеон (Орлик)</text><text fill="black" text-anchor="middle" x="3639.735" y="6386.56457143">Бугурта (Эфи)</text><text fill="black" text-anchor="middle" x="3256.605" y="1930.40228571">Дебора (Злата)</text><text fill="black" text-anchor="middle" x="7776.12" y="6218.18057143">Сара (Атаня)</text><text fill="black" text-anchor="middle" x="7518.335" y="6665.2">Ной (Кирка)</text><text fill="black" text-anchor="middle" x="1825.78" y="2347.35314286">Габриэль (Настя Никульшина)</text><text fill="black" text-anchor="middle" x="9131.265" y="1936.416">Мара (Селена)</text><text fill="black" text-anchor="middle" x="6763.9" y="5725.056">Соломон (Андрей)</text><text fill="black" text-anchor="middle" x="787.545" y="1443.29142857">Иоахим</text><text fill="black" text-anchor="middle" x="8641.71" y="5255.98628571">Давид (Орлик)</text><text fill="black" text-anchor="middle" x="172.645" y="4061.26171429">Авраам (Декарт)</text><text fill="black" text-anchor="middle" x="1142.295" y="1431.264">Юдифь (Лильсла)</text><text fill="black" text-anchor="middle" x="5725.665" y="1046.38628571">Авессалом (Тео)</text><text fill="black" text-anchor="middle" x="6281.44" y="1972.49828571">Сара (Эйлин)</text><text fill="black" text-anchor="middle" x="8102.49" y="4494.24914286">Иезекииль (Андрей)</text><text fill="black" text-anchor="middle" x="2852.19" y="1461.33257143">Тирца (Нэсса)</text><text fill="black" text-anchor="middle" x="1674.42" y="2068.71771429">Илана (Луч)</text><text fill="black" text-anchor="middle" x="4909.74" y="6320.41371429">Моисей (Тео)</text><text fill="black" text-anchor="middle" x="7021.685" y="5831.29828571">Зелфа (Ёвин)</text><text fill="black" text-anchor="middle" x="3866.775" y="6735.36">Зелфа (Атаня)</text><text fill="black" text-anchor="middle" x="3951.915" y="871.988571429">Аголиав (203)</text><text fill="black" text-anchor="middle" x="6811.2" y="2465.62285714">Ефрат (Воробейка)</text><text fill="black" text-anchor="middle" x="3351.205" y="5743.09714286">?</text><text fill="black" text-anchor="middle" x="5096.575" y="2519.74628571">Ора (Марья)</text><text fill="black" text-anchor="middle" x="5846.28" y="4582.45028571">Ахиноама (Марья)</text><text fill="black" text-anchor="middle" x="7066.62" y="5352.20571429">Авель (Эфи)</text><text fill="black" text-anchor="middle" x="7527.795" y="2381.43085714">Аврам (Арадурсул)</text><text fill="black" text-anchor="middle" x="3344.11" y="3714.47085714">Рахиль (Сеата)</text><text fill="black" text-anchor="middle" x="7130.475" y="896.043428571">Исайя</text><text fill="black" text-anchor="middle" x="7158.855" y="1619.69371429">Рафаил (Кролль)</text><text fill="black" text-anchor="middle" x="5910.135" y="4335.888">Илия (Арадурсул)</text><text fill="black" text-anchor="middle" x="553.41" y="5304.096">Авигея (Вердалин)</text><text fill="black" text-anchor="middle" x="567.6" y="1942.42971429">Керен (Верит)</text><text fill="black" text-anchor="middle" x="5117.86" y="4267.73257143">Талифа (Нэсса)</text><text fill="black" text-anchor="middle" x="4086.72" y="5171.79428571">Ефа (Хелькэ)</text><text fill="black" text-anchor="middle" x="5136.78" y="3698.43428571">Авраам (Ур)</text><text fill="black" text-anchor="middle" x="8840.37" y="6127.97485714">Илия (Верит)</text><text fill="black" text-anchor="middle" x="8570.76" y="2399.472">Серах (Ур)</text><text fill="black" text-anchor="middle" x="6300.36" y="2459.60914286">Зара</text><text fill="black" text-anchor="middle" x="3412.695" y="6146.016">Саломея (Морлинкс)</text><text fill="black" text-anchor="middle" x="539.22" y="5743.09714286">Мелхисуй (Камилл)</text><text fill="black" text-anchor="middle" x="6328.74" y="6458.72914286">Мириам (Тайлами)</text><text fill="black" text-anchor="middle" x="6662.205" y="3951.01028571">Елимелех (Грэй)</text><text fill="black" text-anchor="middle" x="2781.24" y="5713.02857143">Пнина (Луч)</text><text fill="black" text-anchor="middle" x="224.675" y="2209.03771429">Езекия (Андрей)</text><text fill="black" text-anchor="middle" x="7095.0" y="2838.47314286">Елишева (Санька)</text><text fill="black" text-anchor="middle" x="4086.72" y="2754.28114286">Аголиав (Хэлка)</text><text fill="black" text-anchor="middle" x="1553.805" y="4143.44914286">Амария (Тим)</text><text fill="black" text-anchor="middle" x="8379.195" y="4566.41371429">Руфь (Воробейка)</text><text fill="black" text-anchor="middle" x="6917.625" y="6645.15428571">Раваим (Фидель)</text><text fill="black" text-anchor="middle" x="3150.18" y="6224.19428571">Соломон (Кирка)</text><text fill="black" text-anchor="middle" x="2291.685" y="703.604571429">Моисей (Банцес)</text><text fill="black" text-anchor="middle" x="3788.73" y="5664.91885714">Берия (Элли)</text><text fill="black" text-anchor="middle" x="7196.695" y="6326.42742857">?</text><text fill="black" text-anchor="middle" x="588.885" y="3042.93942857">Иоанна (Ксю)</text><text fill="black" text-anchor="middle" x="4405.995" y="6242.23542857">Суламита (Сеата)</text><text fill="black" text-anchor="middle" x="4188.415" y="871.988571429">?</text><text fill="black" text-anchor="middle" x="8043.365" y="2156.91885714">Ной (Авелио)</text><text fill="black" text-anchor="middle" x="1158.85" y="2321.29371429">Фамарь (Маргарита)</text><text fill="black" text-anchor="middle" x="5605.05" y="6867.66171429">Илана (Ранвен)</text><text fill="black" text-anchor="middle" x="2540.01" y="6152.02971429">Авенир (Камилл)</text></g></svg>