<?xml version="1.0" encoding="utf-8" ?>
<svg baseProfile="tiny" height="3500px" version="1.2" width="4200px" xmlns="http://www.w3.org/2000/svg" xmlns:ev="http://www.w3.org/2001/xml-events" xmlns:xlink="http://www.w3.org/1999/xlink"><defs /><g><polyline fill="none" points="1952,680 1837,762 1722,720" stroke="red" /><polyline fill="none" points="3465,1641 3396,1701 3195,1662" stroke="red" /><polyline fill="none" points="2643,2601 2745,2622 2823,2502" stroke="red" /><polyline fill="none" points="1552,912 1626,985 1681,921" stroke="red" /><polyline fill="none" points="1539,3186 1653,3261 1770,3216" stroke="red" /><polyline fill="none" points="2655,567 2705,599 2755,567" stroke="red" /><polyline fill="none" points="1971,882 2097,966 2186,810" stroke="red" /><polyline fill="none" points="623,1213 1418,1232 1687,1089" stroke="red" /><polyline fill="none" points="1728,2580 1611,2628 1518,2562" stroke="red" /><polyline fill="none" points="2432,2603 2686,2704 3180,2790" stroke="red" /><polyline fill="none" points="95,1102 129,1221 708,1032" stroke="red" /><polyline fill="none" points="2556,3369 2874,3396 3376,3389" stroke="red" /><polyline fill="none" points="2823,2502 2910,2532 2982,2475" stroke="red" /><polyline fill="none" points="1377,963 1487,1006 1552,912" stroke="red" /><polyline fill="none" points="3027,808 2978,842 2929,808" stroke="red" /><polyline fill="none" points="290,1347 249,1479 180,1395" stroke="red" /><polyline fill="none" points="465,2944 530,2990 580,2944" stroke="red" /><polyline fill="none" points="2421,522 2380,559 2303,522" stroke="red" /><polyline fill="none" points="1005,726 1113,813 1206,729" stroke="red" /><polyline fill="none" points="2457,784 2328,1054 2186,810" stroke="red" /><polyline fill="none" points="2499,2163 2340,2205 2164,2129" stroke="red" /><polyline fill="none" points="1062,318 1124,354 1162,318" stroke="red" /><polyline fill="none" points="2457,784 1992,1169 1890,1017" stroke="red" /><polyline fill="none" points="700,122 782,207 872,122" stroke="red" /><polyline fill="none" points="2880,1230 3237,1359 3401,1076" stroke="red" /><polyline fill="none" points="2100,2400 1875,2448 1725,2390" stroke="red" /><polyline fill="none" points="1728,2580 1854,2721 1953,2727" stroke="red" /><polyline fill="none" points="2499,2163 2697,2193 2967,2103" stroke="red" /><polyline fill="none" points="2001,471 2054,515 2117,471" stroke="red" /><polyline fill="none" points="3401,1076 3558,1281 3624,1197" stroke="red" /><polyline fill="none" points="897,1246 885,1377 744,1324" stroke="red" /><polyline fill="none" points="2823,2502 2655,2484 2523,2415" stroke="red" /><polyline fill="none" points="929,1794 1302,1902 1414,1853" stroke="red" /><polyline fill="none" points="978,1983 1101,2181 1161,2145" stroke="red" /><polyline fill="none" points="2472,3015 2661,3060 2750,3030" stroke="red" /><polyline fill="none" points="932,2788 1023,2826 1088,2788" stroke="red" /><polyline fill="none" points="3891,1431 3933,1512 3981,1452" stroke="red" /><polyline fill="none" points="1671,435 963,1116 772,1171" stroke="red" /><polyline fill="none" points="3483,1362 3429,1407 3363,1395" stroke="red" /><polyline fill="none" points="3534,126 3584,158 3634,126" stroke="red" /><polyline fill="none" points="792,2682 696,2706 549,2703" stroke="red" /><polyline fill="none" points="2211,1488 2406,1536 2532,1449" stroke="red" /><polyline fill="none" points="2076,3153 1980,3159 1863,3114" stroke="red" /><polyline fill="none" points="2862,2226 3255,2250 3312,2190" stroke="red" /><polyline fill="none" points="1107,2685 1251,2727 1404,2721" stroke="red" /><polyline fill="none" points="333,720 381,777 483,714" stroke="red" /><polyline fill="none" points="2322,3235 2374,3278 2428,3235" stroke="red" /><polyline fill="none" points="1395,3195 1242,3207 1059,3159" stroke="red" /><polyline fill="none" points="3183,1188 3123,1278 3000,1209" stroke="red" /><polyline fill="none" points="2520,1890 2667,1914 2790,1836" stroke="red" /><polyline fill="none" points="1294,1458 1209,1653 1130,1475" stroke="red" /><polyline fill="none" points="3113,3210 3185,3259 3228,3210" stroke="red" /><polyline fill="none" points="130,757 179,788 233,757" stroke="red" /><polyline fill="none" points="405,1389 324,1632 249,1518" stroke="red" /><polyline fill="none" points="2625,2949 2763,2943 2969,2909" stroke="red" /><polyline fill="none" points="3388,633 3348,685 3297,633" stroke="red" /><polyline fill="none" points="2847,3156 2993,3191 3043,3156" stroke="red" /><polyline fill="none" points="969,351 978,477 885,405" stroke="red" /><polyline fill="none" points="3306,2898 3198,2943 3051,2907" stroke="red" /><polyline fill="none" points="73,2026 246,2031 459,1953" stroke="red" /><polyline fill="none" points="2472,2286 2709,2373 2862,2226" stroke="red" /><polyline fill="none" points="3654,2622 3618,2712 3507,2655" stroke="red" /><polyline fill="none" points="3738,3057 3573,3186 3288,3102" stroke="red" /><polyline fill="none" points="623,1213 539,1260 490,1158" stroke="red" /><polyline fill="none" points="3132,540 3182,572 3232,540" stroke="red" /><polyline fill="none" points="1294,1458 1380,1671 1549,1552" stroke="red" /><polyline fill="none" points="2880,1230 2763,1254 2664,1227" stroke="red" /><polyline fill="none" points="3015,447 3065,479 3115,447" stroke="red" /><polyline fill="none" points="205,2248 227,2300 280,2248" stroke="red" /><polyline fill="none" points="1671,435 1721,467 1771,435" stroke="red" /><polyline fill="none" points="772,1171 594,1377 405,1389" stroke="red" /><polyline fill="none" points="657,2067 713,2145 791,2097" stroke="red" /><polyline fill="none" points="3000,1416 3078,1458 3132,1404" stroke="red" /><polyline fill="none" points="318,887 463,1048 642,900" stroke="red" /><polyline fill="none" points="234,2646 375,2778 549,2703" stroke="red" /><polyline fill="none" points="3360,2833 3430,2886 3489,2833" stroke="red" /><polyline fill="none" points="2172,1845 2151,2001 1974,1836" stroke="red" /><polyline fill="none" points="3540,2355 3480,2376 3420,2307" stroke="red" /><polyline fill="none" points="2421,522 2228,1317 2155,1257" stroke="red" /><polyline fill="none" points="1317,2865 1367,2897 1417,2865" stroke="red" /><polyline fill="none" points="3290,3309 3498,3351 3648,3315" stroke="red" /><polyline fill="none" points="3132,1404 3081,1728 2883,1557" stroke="red" /><polyline fill="none" points="1728,1374 1875,1464 1917,1416" stroke="red" /><polyline fill="none" points="3999,960 3936,990 3861,966" stroke="red" /><polyline fill="none" points="2100,2400 2310,2547 2523,2415" stroke="red" /><polyline fill="none" points="1305,2538 1458,2592 1518,2562" stroke="red" /><polyline fill="none" points="2656,984 2579,1044 2495,989" stroke="red" /><polyline fill="none" points="1377,963 1402,1124 1239,1002" stroke="red" /></g><g><polyline fill="none" points="1302,1902 1567,2154" stroke="green" /><polyline fill="none" points="1209,1653 2643,2601" stroke="green" /><polyline fill="none" points="375,2778 1059,3159" stroke="green" /><polyline fill="none" points="2097,966 1130,1475" stroke="green" /><polyline fill="none" points="978,477 1005,726" stroke="green" /><polyline fill="none" points="3480,2376 2750,3030" stroke="green" /><polyline fill="none" points="3081,1728 2862,2226" stroke="green" /><polyline fill="none" points="2661,3060 2583,3219" stroke="green" /><polyline fill="none" points="2667,1914 2823,2502" stroke="green" /><polyline fill="none" points="3936,990 3981,1452" stroke="green" /><polyline fill="none" points="539,1260 1725,2390" stroke="green" /><polyline fill="none" points="1380,1671 2982,2475" stroke="green" /><polyline fill="none" points="2745,2622 2874,2664" stroke="green" /><polyline fill="none" points="2374,3278 2193,3357" stroke="green" /><polyline fill="none" points="3584,158 3891,1431" stroke="green" /><polyline fill="none" points="1124,354 1681,921" stroke="green" /><polyline fill="none" points="3255,2250 3180,2790" stroke="green" /><polyline fill="none" points="2697,2193 2472,3015" stroke="green" /><polyline fill="none" points="1380,1671 1305,2538" stroke="green" /><polyline fill="none" points="324,1632 2523,2415" stroke="green" /><polyline fill="none" points="1875,1464 1518,2562" stroke="green" /><polyline fill="none" points="1113,813 791,2097" stroke="green" /><polyline fill="none" points="2993,3191 2775,3312" stroke="green" /><polyline fill="none" points="3430,2886 3456,3267" stroke="green" /><polyline fill="none" points="3618,2712 3564,2835" stroke="green" /><polyline fill="none" points="1124,354 1890,1017" stroke="green" /><polyline fill="none" points="963,1116 2520,1890" stroke="green" /><polyline fill="none" points="1101,2181 792,2682" stroke="green" /><polyline fill="none" points="2686,2704 1395,3195" stroke="green" /><polyline fill="none" points="2406,1536 2432,2603" stroke="green" /><polyline fill="none" points="3078,1458 459,1953" stroke="green" /><polyline fill="none" points="2340,2205 2112,2745" stroke="green" /><polyline fill="none" points="3584,158 3388,633" stroke="green" /><polyline fill="none" points="530,2990 639,3081" stroke="green" /><polyline fill="none" points="381,777 405,1389" stroke="green" /><polyline fill="none" points="963,1116 1294,1458" stroke="green" /><polyline fill="none" points="2910,2532 3027,2583" stroke="green" /><polyline fill="none" points="2661,3060 2521,3160" stroke="green" /><polyline fill="none" points="2228,1317 1917,1416" stroke="green" /><polyline fill="none" points="3185,3259 3290,3309" stroke="green" /><polyline fill="none" points="227,2300 504,2358" stroke="green" /><polyline fill="none" points="1023,2826 951,3024" stroke="green" /><polyline fill="none" points="782,207 897,1246" stroke="green" /><polyline fill="none" points="1721,467 1722,720" stroke="green" /><polyline fill="none" points="2097,966 2100,2400" stroke="green" /><polyline fill="none" points="885,1377 929,1794" stroke="green" /><polyline fill="none" points="2054,515 1971,882" stroke="green" /><polyline fill="none" points="1418,1232 1974,1836" stroke="green" /><polyline fill="none" points="2697,2193 2382,3021" stroke="green" /><polyline fill="none" points="246,2031 549,2703" stroke="green" /><polyline fill="none" points="2310,2547 2625,2949" stroke="green" /><polyline fill="none" points="1875,2448 1863,2565" stroke="green" /><polyline fill="none" points="1113,813 978,1983" stroke="green" /><polyline fill="none" points="3396,1701 2967,2103" stroke="green" /><polyline fill="none" points="3185,3259 3046,3328" stroke="green" /><polyline fill="none" points="2310,2547 1404,2721" stroke="green" /><polyline fill="none" points="978,477 3195,1662" stroke="green" /><polyline fill="none" points="2374,3278 2556,3369" stroke="green" /><polyline fill="none" points="2763,1254 2790,1836" stroke="green" /><polyline fill="none" points="2406,1536 3312,2190" stroke="green" /><polyline fill="none" points="1992,1169 2211,1488" stroke="green" /><polyline fill="none" points="3430,2886 3376,3389" stroke="green" /><polyline fill="none" points="381,777 623,1213" stroke="green" /><polyline fill="none" points="3573,3186 3648,3315" stroke="green" /><polyline fill="none" points="246,2031 1107,2685" stroke="green" /><polyline fill="none" points="2667,1914 1152,2430" stroke="green" /><polyline fill="none" points="696,2706 801,2841" stroke="green" /><polyline fill="none" points="3618,2712 3666,2844" stroke="green" /><polyline fill="none" points="2705,599 2457,784" stroke="green" /><polyline fill="none" points="1854,2721 1770,2820" stroke="green" /><polyline fill="none" points="2697,2193 3507,2655" stroke="green" /><polyline fill="none" points="3430,2886 3554,3250" stroke="green" /><polyline fill="none" points="3123,1278 1549,1552" stroke="green" /><polyline fill="none" points="3123,1278 3132,1404" stroke="green" /><polyline fill="none" points="530,2990 468,3072" stroke="green" /><polyline fill="none" points="1854,2721 1868,2806" stroke="green" /><polyline fill="none" points="1837,762 1687,1089" stroke="green" /><polyline fill="none" points="129,1221 744,1324" stroke="green" /><polyline fill="none" points="3255,2250 3306,2898" stroke="green" /><polyline fill="none" points="3429,1407 3465,1641" stroke="green" /><polyline fill="none" points="2340,2205 1953,2727" stroke="green" /><polyline fill="none" points="3081,1728 1161,2145" stroke="green" /><polyline fill="none" points="1721,467 1552,912" stroke="green" /><polyline fill="none" points="2667,1914 2730,2025" stroke="green" /><polyline fill="none" points="2328,1054 2883,1557" stroke="green" /><polyline fill="none" points="2705,599 3000,1209" stroke="green" /><polyline fill="none" points="782,207 1062,318" stroke="green" /><polyline fill="none" points="3237,1359 3246,1464" stroke="green" /><polyline fill="none" points="2686,2704 2644,2793" stroke="green" /><polyline fill="none" points="227,2300 87,2361" stroke="green" /><polyline fill="none" points="2579,1044 2532,1449" stroke="green" /><polyline fill="none" points="1458,2592 1539,3186" stroke="green" /><polyline fill="none" points="179,788 1377,963" stroke="green" /><polyline fill="none" points="1101,2181 3288,3102" stroke="green" /><polyline fill="none" points="3185,3259 3179,3325" stroke="green" /><polyline fill="none" points="3348,685 772,1171" stroke="green" /><polyline fill="none" points="2686,2704 2860,2856" stroke="green" /><polyline fill="none" points="3480,2376 3654,2622" stroke="green" /><polyline fill="none" points="129,1221 73,2026" stroke="green" /><polyline fill="none" points="2054,515 483,714" stroke="green" /><polyline fill="none" points="3584,158 2421,522" stroke="green" /><polyline fill="none" points="2978,842 2656,984" stroke="green" /><polyline fill="none" points="2380,559 1206,729" stroke="green" /><polyline fill="none" points="2705,599 708,1032" stroke="green" /><polyline fill="none" points="2661,3060 2076,3153" stroke="green" /><polyline fill="none" points="3255,2250 2969,2909" stroke="green" /><polyline fill="none" points="1653,3261 1635,3360" stroke="green" /><polyline fill="none" points="1124,354 2880,1230" stroke="green" /><polyline fill="none" points="1402,1124 2155,1257" stroke="green" /><polyline fill="none" points="1302,1902 2472,2286" stroke="green" /><polyline fill="none" points="2910,2532 2988,2670" stroke="green" /><polyline fill="none" points="3182,572 3183,1188" stroke="green" /><polyline fill="none" points="3933,1512 1414,1853" stroke="green" /><polyline fill="none" points="3065,479 3027,808" stroke="green" /><polyline fill="none" points="2406,1536 2499,2163" stroke="green" /><polyline fill="none" points="1302,1902 234,2646" stroke="green" /><polyline fill="none" points="179,788 240,969" stroke="green" /><polyline fill="none" points="2151,2001 2164,2129" stroke="green" /><polyline fill="none" points="2667,1914 1728,2580" stroke="green" /><polyline fill="none" points="1992,1169 2172,1845" stroke="green" /><polyline fill="none" points="3933,1512 3738,3057" stroke="green" /><polyline fill="none" points="1367,2897 1443,3066" stroke="green" /><polyline fill="none" points="375,2778 228,2865" stroke="green" /><polyline fill="none" points="2661,3060 2676,3222" stroke="green" /><polyline fill="none" points="2667,1914 2817,1971" stroke="green" /><polyline fill="none" points="1458,2592 1176,2850" stroke="green" /><polyline fill="none" points="179,788 95,1102" stroke="green" /><polyline fill="none" points="2763,1254 3000,1416" stroke="green" /><polyline fill="none" points="1487,1006 1728,1374" stroke="green" /><polyline fill="none" points="539,1260 657,2067" stroke="green" /><polyline fill="none" points="3396,1701 3420,2307" stroke="green" /><polyline fill="none" points="2993,3191 2925,3315" stroke="green" /><polyline fill="none" points="1367,2897 1332,3105" stroke="green" /><polyline fill="none" points="782,207 969,351" stroke="green" /><polyline fill="none" points="1458,2592 1602,2826" stroke="green" /><polyline fill="none" points="249,1479 249,1518" stroke="green" /><polyline fill="none" points="1611,2628 1863,3114" stroke="green" /><polyline fill="none" points="3584,158 3401,1076" stroke="green" /><polyline fill="none" points="463,1048 490,1158" stroke="green" /><polyline fill="none" points="1023,2826 1074,3069" stroke="green" /></g><g><polyline fill="none" points="2382,3021 2193,3357" stroke="blue" /><polyline fill="none" points="1209,1653 2523,2415" stroke="blue" /><polyline fill="none" points="1302,1902 791,2097" stroke="blue" /><polyline fill="none" points="3306,2898 2775,3312" stroke="blue" /><polyline fill="none" points="2860,2856 2775,3312" stroke="blue" /><polyline fill="none" points="3288,3102 3456,3267" stroke="blue" /><polyline fill="none" points="405,1389 2520,1890" stroke="blue" /><polyline fill="none" points="2686,2704 3051,2907" stroke="blue" /><polyline fill="none" points="405,1389 1294,1458" stroke="blue" /><polyline fill="none" points="2750,3030 2949,3109" stroke="blue" /><polyline fill="none" points="744,1324 504,2358" stroke="blue" /><polyline fill="none" points="73,2026 504,2358" stroke="blue" /><polyline fill="none" points="1176,2850 951,3024" stroke="blue" /><polyline fill="none" points="3738,3057 3792,3294" stroke="blue" /><polyline fill="none" points="1953,2727 1770,3216" stroke="blue" /><polyline fill="none" points="2823,2502 2625,2949" stroke="blue" /><polyline fill="none" points="1302,1902 978,1983" stroke="blue" /><polyline fill="none" points="2823,2502 1404,2721" stroke="blue" /><polyline fill="none" points="2382,3021 2556,3369" stroke="blue" /><polyline fill="none" points="1152,2430 1065,2556" stroke="blue" /><polyline fill="none" points="3288,3102 3376,3389" stroke="blue" /><polyline fill="none" points="1302,1902 1152,2430" stroke="blue" /><polyline fill="none" points="2112,2745 2337,2937" stroke="blue" /><polyline fill="none" points="3288,3102 3554,3250" stroke="blue" /><polyline fill="none" points="1890,1017 2883,1557" stroke="blue" /><polyline fill="none" points="744,1324 87,2361" stroke="blue" /><polyline fill="none" points="73,2026 87,2361" stroke="blue" /><polyline fill="none" points="3401,1076 772,1171" stroke="blue" /><polyline fill="none" points="3246,1464 3540,2355" stroke="blue" /><polyline fill="none" points="1176,2850 1443,3066" stroke="blue" /><polyline fill="none" points="3306,2898 2925,3315" stroke="blue" /><polyline fill="none" points="2860,2856 2925,3315" stroke="blue" /><polyline fill="none" points="1176,2850 1332,3105" stroke="blue" /><polyline fill="none" points="2556,3369 2370,3426" stroke="blue" /><polyline fill="none" points="2193,3357 2370,3426" stroke="blue" /><polyline fill="none" points="1176,2850 1074,3069" stroke="blue" /></g><g><text fill="black" text-anchor="middle" x="1567" y="2154">Наама (Ур)</text><text fill="black" text-anchor="middle" x="1162" y="318">?</text><text fill="black" text-anchor="middle" x="3232" y="540">?</text><text fill="black" text-anchor="middle" x="804" y="3171">Исаак (Орлик)</text><text fill="black" text-anchor="middle" x="2643" y="2601">Далила (Морлинкс)</text><text fill="black" text-anchor="middle" x="1059" y="3159">Елиазар (Воробейка)</text><text fill="black" text-anchor="middle" x="1130" y="1475">Мириам (Атаня)</text><text fill="black" text-anchor="middle" x="1005" y="726">Гирсам (Вася Шатров)</text><text fill="black" text-anchor="middle" x="2750" y="3030">Сара (Ри)</text><text fill="black" text-anchor="middle" x="2862" y="2226">Иисус (Банцес)</text><text fill="black" text-anchor="middle" x="2583" y="3219">Руфь (Верит)</text><text fill="black" text-anchor="middle" x="2823" y="2502">Елисей (Рингл)</text><text fill="black" text-anchor="middle" x="3981" y="1452">Фарра (Фидель)</text><text fill="black" text-anchor="middle" x="885" y="405">Сепфора (Вар)</text><text fill="black" text-anchor="middle" x="1725" y="2390">Мириам (Анчоус)</text><text fill="black" text-anchor="middle" x="280" y="2248">?</text><text fill="black" text-anchor="middle" x="2982" y="2475">Габриэлла (Сцила)</text><text fill="black" text-anchor="middle" x="2874" y="2664">Лия (Вар)</text><text fill="black" text-anchor="middle" x="2193" y="3357">Елисей (Эйлин)</text><text fill="black" text-anchor="middle" x="3891" y="1431">Дина (Хелькэ)</text><text fill="black" text-anchor="middle" x="1681" y="921">Ривка (Фалька)</text><text fill="black" text-anchor="middle" x="700" y="122">Иохаведа</text><text fill="black" text-anchor="middle" x="3180" y="2790">Юдифь (Ранвен)</text><text fill="black" text-anchor="middle" x="2472" y="3015">Иуда (Ксю)</text><text fill="black" text-anchor="middle" x="180" y="1395">Самсон</text><text fill="black" text-anchor="middle" x="1305" y="2538">Эсфирь (Злата)</text><text fill="black" text-anchor="middle" x="2523" y="2415">Мария (Тинде)</text><text fill="black" text-anchor="middle" x="1518" y="2562">Микаэль (Вася Шатров)</text><text fill="black" text-anchor="middle" x="791" y="2097">Мелхола (Элли)</text><text fill="black" text-anchor="middle" x="3483" y="1362">Иозиил</text><text fill="black" text-anchor="middle" x="2775" y="3312">Ада (Нэсса)</text><text fill="black" text-anchor="middle" x="2655" y="567">Йоэль (Сеата)</text><text fill="black" text-anchor="middle" x="2303" y="522">?</text><text fill="black" text-anchor="middle" x="3456" y="3267">Симеон (Камилл)</text><text fill="black" text-anchor="middle" x="3564" y="2835">Елишева (Лильсла)</text><text fill="black" text-anchor="middle" x="1890" y="1017">Ноеминь (Тинде)</text><text fill="black" text-anchor="middle" x="318" y="887">Агарь (Элли)</text><text fill="black" text-anchor="middle" x="2520" y="1890">Лия (Хейтэлл)</text><text fill="black" text-anchor="middle" x="1952" y="680">Исайя (Декарт)</text><text fill="black" text-anchor="middle" x="932" y="2788">?</text><text fill="black" text-anchor="middle" x="3113" y="3210">?</text><text fill="black" text-anchor="middle" x="3363" y="1395">Ноадия</text><text fill="black" text-anchor="middle" x="3360" y="2833">?</text><text fill="black" text-anchor="middle" x="1317" y="2865">?</text><text fill="black" text-anchor="middle" x="2847" y="3156">?</text><text fill="black" text-anchor="middle" x="205" y="2248">?</text><text fill="black" text-anchor="middle" x="3534" y="126">?</text><text fill="black" text-anchor="middle" x="792" y="2682">Анна (Анчоус)</text><text fill="black" text-anchor="middle" x="2322" y="3235">?</text><text fill="black" text-anchor="middle" x="3051" y="2907">Саул (Авелио)</text><text fill="black" text-anchor="middle" x="1395" y="3195">Далила (Хейтэлл)</text><text fill="black" text-anchor="middle" x="2432" y="2603">Иосиф (Фидель)</text><text fill="black" text-anchor="middle" x="459" y="1953">Дина (Лильсла)</text><text fill="black" text-anchor="middle" x="2112" y="2745">Иосиф (Кролль)</text><text fill="black" text-anchor="middle" x="3388" y="633">Вениамин</text><text fill="black" text-anchor="middle" x="639" y="3081">Эсфер (Товер)</text><text fill="black" text-anchor="middle" x="405" y="1389">Хирам (Вердалин)</text><text fill="black" text-anchor="middle" x="1294" y="1458">Илия (Кролль)</text><text fill="black" text-anchor="middle" x="3027" y="2583">Каин (Артем Грачев)</text><text fill="black" text-anchor="middle" x="3228" y="3210">?</text><text fill="black" text-anchor="middle" x="2521" y="3160">Ева (Тайлами)</text><text fill="black" text-anchor="middle" x="233" y="757">?</text><text fill="black" text-anchor="middle" x="1917" y="1416">Сарра (Ранвен)</text><text fill="black" text-anchor="middle" x="3290" y="3309">Самсон (203)</text><text fill="black" text-anchor="middle" x="2949" y="3109">Сарра (Морлинкс)</text><text fill="black" text-anchor="middle" x="465" y="2944">?</text><text fill="black" text-anchor="middle" x="2001" y="471">Зива (Ёвин)</text><text fill="black" text-anchor="middle" x="872" y="122">?</text><text fill="black" text-anchor="middle" x="504" y="2358">Эсфирь (Вар)</text><text fill="black" text-anchor="middle" x="290" y="1347">Наара (Анчоус)</text><text fill="black" text-anchor="middle" x="2929" y="808">?</text><text fill="black" text-anchor="middle" x="951" y="3024">Сусанна (Маргарита)</text><text fill="black" text-anchor="middle" x="580" y="2944">?</text><text fill="black" text-anchor="middle" x="897" y="1246">Аарон (Сергей Шульгин)</text><text fill="black" text-anchor="middle" x="1722" y="720">Руфь (Ранвен)</text><text fill="black" text-anchor="middle" x="3792" y="3294">Фарра (203)</text><text fill="black" text-anchor="middle" x="2495" y="989">Тартан (Тим)</text><text fill="black" text-anchor="middle" x="2100" y="2400">Барух (Авелио)</text><text fill="black" text-anchor="middle" x="2755" y="567">?</text><text fill="black" text-anchor="middle" x="3297" y="633">?</text><text fill="black" text-anchor="middle" x="929" y="1794">Арамей (203)</text><text fill="black" text-anchor="middle" x="1971" y="882">Барух (Артем Грачев)</text><text fill="black" text-anchor="middle" x="1974" y="1836">Ревекка (Селена)</text><text fill="black" text-anchor="middle" x="2117" y="471">?</text><text fill="black" text-anchor="middle" x="3132" y="540">Сира (Атаня)</text><text fill="black" text-anchor="middle" x="1770" y="3216">Фарра (Элли)</text><text fill="black" text-anchor="middle" x="3115" y="447">?</text><text fill="black" text-anchor="middle" x="3999" y="960">Езекия</text><text fill="black" text-anchor="middle" x="2382" y="3021">Сара (Кирка)</text><text fill="black" text-anchor="middle" x="549" y="2703">Лазарь (Фоссовей)</text><text fill="black" text-anchor="middle" x="2625" y="2949">Илия (Камилл)</text><text fill="black" text-anchor="middle" x="1863" y="2565">Зива (Настя Никульшина)</text><text fill="black" text-anchor="middle" x="978" y="1983">Авессалом (Лу)</text><text fill="black" text-anchor="middle" x="2967" y="2103">Сепфора (Фалька)</text><text fill="black" text-anchor="middle" x="3046" y="3328">Сим (Рингл)</text><text fill="black" text-anchor="middle" x="1404" y="2721">Микаэл (Хейтэлл)</text><text fill="black" text-anchor="middle" x="2186" y="810">Ноа (Сцила)</text><text fill="black" text-anchor="middle" x="3195" y="1662">Мириам (Саша Даниленко)</text><text fill="black" text-anchor="middle" x="642" y="900">Саул</text><text fill="black" text-anchor="middle" x="2556" y="3369">Иудея (Селена)</text><text fill="black" text-anchor="middle" x="1065" y="2556">Аарон (Авелио)</text><text fill="black" text-anchor="middle" x="2790" y="1836">Ошер (Камилл)</text><text fill="black" text-anchor="middle" x="3312" y="2190">Яффа (Тайлами)</text><text fill="black" text-anchor="middle" x="2211" y="1488">Яффа (Эфи)</text><text fill="black" text-anchor="middle" x="3376" y="3389">Вениамин (Лу)</text><text fill="black" text-anchor="middle" x="623" y="1213">Амария (Товер)</text><text fill="black" text-anchor="middle" x="3648" y="3315">Сира (Санька)</text><text fill="black" text-anchor="middle" x="1107" y="2685">Дебора (Санька)</text><text fill="black" text-anchor="middle" x="1152" y="2430">Ефрем (Товер)</text><text fill="black" text-anchor="middle" x="801" y="2841">Азраил (Арадурсул)</text><text fill="black" text-anchor="middle" x="2428" y="3235">?</text><text fill="black" text-anchor="middle" x="3666" y="2844">Исаак (Лу)</text><text fill="black" text-anchor="middle" x="2337" y="2937">Иов (Марья)</text><text fill="black" text-anchor="middle" x="2457" y="784">Илия (Рингл)</text><text fill="black" text-anchor="middle" x="1770" y="2820">Авраам (Вася Шатров)</text><text fill="black" text-anchor="middle" x="3507" y="2655">Яффа-Мириам (Маргарита)</text><text fill="black" text-anchor="middle" x="3554" y="3250">Берия (Орлик)</text><text fill="black" text-anchor="middle" x="1549" y="1552">Юдифь (Ёвин)</text><text fill="black" text-anchor="middle" x="3132" y="1404">Моисей (Фоссовей)</text><text fill="black" text-anchor="middle" x="130" y="757">Авива (Хейтэлл)</text><text fill="black" text-anchor="middle" x="468" y="3072">Руфь (Ёвин)</text><text fill="black" text-anchor="middle" x="1088" y="2788">?</text><text fill="black" text-anchor="middle" x="1868" y="2806">Руфь (Злата)</text><text fill="black" text-anchor="middle" x="1687" y="1089">Ева (Ри)</text><text fill="black" text-anchor="middle" x="744" y="1324">Рахиль (Морлинкс)</text><text fill="black" text-anchor="middle" x="3306" y="2898">Анна (Хэлка)</text><text fill="black" text-anchor="middle" x="1239" y="1002">Зеэв</text><text fill="black" text-anchor="middle" x="3465" y="1641">Иоканаан (Грэй)</text><text fill="black" text-anchor="middle" x="1953" y="2727">Вениамин (Декарт)</text><text fill="black" text-anchor="middle" x="1161" y="2145">Лия (Эйлин)</text><text fill="black" text-anchor="middle" x="1552" y="912">Иаков (Лу)</text><text fill="black" text-anchor="middle" x="2730" y="2025">Емима (Саша Даниленко)</text><text fill="black" text-anchor="middle" x="2883" y="1557">Нава (Кирка)</text><text fill="black" text-anchor="middle" x="3000" y="1209">Зелфа (Тайлами)</text><text fill="black" text-anchor="middle" x="1062" y="318">Мириам (Хэлка)</text><text fill="black" text-anchor="middle" x="3489" y="2833">?</text><text fill="black" text-anchor="middle" x="3246" y="1464">Иисус (Артем Грачев)</text><text fill="black" text-anchor="middle" x="2644" y="2793">Яффа (Ёвин)</text><text fill="black" text-anchor="middle" x="3634" y="126">?</text><text fill="black" text-anchor="middle" x="87" y="2361">Ельезар (Тео)</text><text fill="black" text-anchor="middle" x="2532" y="1449">Симеон (Орлик)</text><text fill="black" text-anchor="middle" x="1539" y="3186">Бугурта (Эфи)</text><text fill="black" text-anchor="middle" x="1377" y="963">Дебора (Злата)</text><text fill="black" text-anchor="middle" x="3288" y="3102">Сара (Атаня)</text><text fill="black" text-anchor="middle" x="3179" y="3325">Ной (Кирка)</text><text fill="black" text-anchor="middle" x="772" y="1171">Габриэль (Настя Никульшина)</text><text fill="black" text-anchor="middle" x="3861" y="966">Мара (Селена)</text><text fill="black" text-anchor="middle" x="2860" y="2856">Соломон (Андрей)</text><text fill="black" text-anchor="middle" x="333" y="720">Иоахим</text><text fill="black" text-anchor="middle" x="3654" y="2622">Давид (Орлик)</text><text fill="black" text-anchor="middle" x="73" y="2026">Авраам (Декарт)</text><text fill="black" text-anchor="middle" x="483" y="714">Юдифь (Лильсла)</text><text fill="black" text-anchor="middle" x="2421" y="522">Авессалом (Тео)</text><text fill="black" text-anchor="middle" x="2656" y="984">Сара (Эйлин)</text><text fill="black" text-anchor="middle" x="3540" y="2355">Иезекииль (Андрей)</text><text fill="black" text-anchor="middle" x="1206" y="729">Тирца (Нэсса)</text><text fill="black" text-anchor="middle" x="708" y="1032">Илана (Луч)</text><text fill="black" text-anchor="middle" x="2076" y="3153">Моисей (Тео)</text><text fill="black" text-anchor="middle" x="2969" y="2909">Зелфа (Ёвин)</text><text fill="black" text-anchor="middle" x="1635" y="3360">Зелфа (Атаня)</text><text fill="black" text-anchor="middle" x="1671" y="435">Аголиав (203)</text><text fill="black" text-anchor="middle" x="2880" y="1230">Ефрат (Воробейка)</text><text fill="black" text-anchor="middle" x="1417" y="2865">?</text><text fill="black" text-anchor="middle" x="2155" y="1257">Ора (Марья)</text><text fill="black" text-anchor="middle" x="2472" y="2286">Ахиноама (Марья)</text><text fill="black" text-anchor="middle" x="2988" y="2670">Авель (Эфи)</text><text fill="black" text-anchor="middle" x="3183" y="1188">Аврам (Арадурсул)</text><text fill="black" text-anchor="middle" x="1414" y="1853">Рахиль (Сеата)</text><text fill="black" text-anchor="middle" x="3015" y="447">Исайя</text><text fill="black" text-anchor="middle" x="3027" y="808">Рафаил (Кролль)</text><text fill="black" text-anchor="middle" x="2499" y="2163">Илия (Арадурсул)</text><text fill="black" text-anchor="middle" x="234" y="2646">Авигея (Вердалин)</text><text fill="black" text-anchor="middle" x="240" y="969">Керен (Верит)</text><text fill="black" text-anchor="middle" x="2164" y="2129">Талифа (Нэсса)</text><text fill="black" text-anchor="middle" x="1728" y="2580">Ефа (Хелькэ)</text><text fill="black" text-anchor="middle" x="2172" y="1845">Авраам (Ур)</text><text fill="black" text-anchor="middle" x="3738" y="3057">Илия (Верит)</text><text fill="black" text-anchor="middle" x="3624" y="1197">Серах (Ур)</text><text fill="black" text-anchor="middle" x="2664" y="1227">Зара</text><text fill="black" text-anchor="middle" x="1443" y="3066">Саломея (Морлинкс)</text><text fill="black" text-anchor="middle" x="228" y="2865">Мелхисуй (Камилл)</text><text fill="black" text-anchor="middle" x="2676" y="3222">Мириам (Тайлами)</text><text fill="black" text-anchor="middle" x="2817" y="1971">Елимелех (Грэй)</text><text fill="black" text-anchor="middle" x="1176" y="2850">Пнина (Луч)</text><text fill="black" text-anchor="middle" x="95" y="1102">Езекия (Андрей)</text><text fill="black" text-anchor="middle" x="3000" y="1416">Елишева (Санька)</text><text fill="black" text-anchor="middle" x="1728" y="1374">Аголиав (Хэлка)</text><text fill="black" text-anchor="middle" x="657" y="2067">Амария (Тим)</text><text fill="black" text-anchor="middle" x="3420" y="2307">Руфь (Воробейка)</text><text fill="black" text-anchor="middle" x="2925" y="3315">Раваим (Фидель)</text><text fill="black" text-anchor="middle" x="1332" y="3105">Соломон (Кирка)</text><text fill="black" text-anchor="middle" x="969" y="351">Моисей (Банцес)</text><text fill="black" text-anchor="middle" x="1602" y="2826">Берия (Элли)</text><text fill="black" text-anchor="middle" x="3043" y="3156">?</text><text fill="black" text-anchor="middle" x="249" y="1518">Иоанна (Ксю)</text><text fill="black" text-anchor="middle" x="1863" y="3114">Суламита (Сеата)</text><text fill="black" text-anchor="middle" x="1771" y="435">?</text><text fill="black" text-anchor="middle" x="3401" y="1076">Ной (Авелио)</text><text fill="black" text-anchor="middle" x="490" y="1158">Фамарь (Маргарита)</text><text fill="black" text-anchor="middle" x="2370" y="3426">Илана (Ранвен)</text><text fill="black" text-anchor="middle" x="1074" y="3069">Авенир (Камилл)</text></g></svg>